<mxfile host="app.diagrams.net" modified="2021-05-03T16:21:17.087Z" agent="5.0 (Windows NT 10.0; Win64; x64) AppleWebKit/537.36 (KHTML, like Gecko) Chrome/90.0.4430.93 Safari/537.36" etag="hps99F15DQ0Sq3_xPKtz" version="14.6.6" type="github">
  <diagram name="Page-1" id="97916047-d0de-89f5-080d-49f4d83e522f">
    <mxGraphModel dx="1422" dy="2002.5" grid="1" gridSize="10" guides="1" tooltips="1" connect="1" arrows="1" fold="1" page="1" pageScale="1.5" pageWidth="1169" pageHeight="827" background="#ffffff" math="0" shadow="0">
      <root>
        <mxCell id="0" />
        <mxCell id="1" parent="0" />
        <mxCell id="plu38aycX0s7U97oGBFF-140" value="" style="rounded=0;whiteSpace=wrap;html=1;" parent="1" vertex="1">
          <mxGeometry x="330" y="-669.5" width="830" height="670" as="geometry" />
        </mxCell>
        <mxCell id="plu38aycX0s7U97oGBFF-104" style="edgeStyle=orthogonalEdgeStyle;rounded=0;orthogonalLoop=1;jettySize=auto;html=1;entryX=0.5;entryY=0;entryDx=0;entryDy=0;entryPerimeter=0;" parent="1" source="plu38aycX0s7U97oGBFF-105" target="plu38aycX0s7U97oGBFF-139" edge="1">
          <mxGeometry relative="1" as="geometry" />
        </mxCell>
        <mxCell id="plu38aycX0s7U97oGBFF-105" value="" style="rounded=1;whiteSpace=wrap;html=1;fillColor=#dae8fc;strokeColor=#6c8ebf;" parent="1" vertex="1">
          <mxGeometry x="892.5" y="-412" width="175" height="110" as="geometry" />
        </mxCell>
        <mxCell id="plu38aycX0s7U97oGBFF-106" value="" style="edgeStyle=orthogonalEdgeStyle;rounded=0;orthogonalLoop=1;jettySize=auto;html=1;" parent="1" source="plu38aycX0s7U97oGBFF-107" target="plu38aycX0s7U97oGBFF-111" edge="1">
          <mxGeometry relative="1" as="geometry" />
        </mxCell>
        <mxCell id="plu38aycX0s7U97oGBFF-107" value="" style="outlineConnect=0;dashed=0;verticalLabelPosition=bottom;verticalAlign=top;align=center;html=1;shape=mxgraph.aws3.ec2_compute_container;fillColor=#F58534;gradientColor=none;" parent="1" vertex="1">
          <mxGeometry x="910" y="-392" width="140" height="70" as="geometry" />
        </mxCell>
        <mxCell id="plu38aycX0s7U97oGBFF-108" value="pg" style="strokeWidth=2;html=1;shape=mxgraph.flowchart.database;whiteSpace=wrap;" parent="1" vertex="1">
          <mxGeometry x="955" y="-377" width="50" height="40" as="geometry" />
        </mxCell>
        <mxCell id="plu38aycX0s7U97oGBFF-109" value="" style="html=1;dashed=0;whitespace=wrap;fillColor=#2875E2;strokeColor=#ffffff;points=[[0.005,0.63,0],[0.1,0.2,0],[0.9,0.2,0],[0.5,0,0],[0.995,0.63,0],[0.72,0.99,0],[0.5,1,0],[0.28,0.99,0]];shape=mxgraph.kubernetes.icon;prIcon=pv" parent="1" vertex="1">
          <mxGeometry x="947.5" y="-110" width="65" height="60" as="geometry" />
        </mxCell>
        <mxCell id="plu38aycX0s7U97oGBFF-110" value="" style="edgeStyle=orthogonalEdgeStyle;rounded=0;orthogonalLoop=1;jettySize=auto;html=1;" parent="1" source="plu38aycX0s7U97oGBFF-111" target="plu38aycX0s7U97oGBFF-109" edge="1">
          <mxGeometry relative="1" as="geometry" />
        </mxCell>
        <mxCell id="plu38aycX0s7U97oGBFF-111" value="" style="html=1;dashed=0;whitespace=wrap;fillColor=#2875E2;strokeColor=#ffffff;points=[[0.005,0.63,0],[0.1,0.2,0],[0.9,0.2,0],[0.5,0,0],[0.995,0.63,0],[0.72,0.99,0],[0.5,1,0],[0.28,0.99,0]];shape=mxgraph.kubernetes.icon;prIcon=pvc" parent="1" vertex="1">
          <mxGeometry x="947.5" y="-230" width="65" height="60" as="geometry" />
        </mxCell>
        <mxCell id="plu38aycX0s7U97oGBFF-112" style="edgeStyle=orthogonalEdgeStyle;rounded=0;orthogonalLoop=1;jettySize=auto;html=1;entryX=0.5;entryY=0;entryDx=0;entryDy=0;" parent="1" source="plu38aycX0s7U97oGBFF-113" target="plu38aycX0s7U97oGBFF-105" edge="1">
          <mxGeometry relative="1" as="geometry" />
        </mxCell>
        <mxCell id="plu38aycX0s7U97oGBFF-113" value="" style="html=1;dashed=0;whitespace=wrap;fillColor=#2875E2;strokeColor=#ffffff;points=[[0.005,0.63,0],[0.1,0.2,0],[0.9,0.2,0],[0.5,0,0],[0.995,0.63,0],[0.72,0.99,0],[0.5,1,0],[0.28,0.99,0]];shape=mxgraph.kubernetes.icon;prIcon=svc" parent="1" vertex="1">
          <mxGeometry x="925" y="-570" width="110" height="80" as="geometry" />
        </mxCell>
        <mxCell id="plu38aycX0s7U97oGBFF-114" value="" style="rounded=1;whiteSpace=wrap;html=1;fillColor=#dae8fc;strokeColor=#6c8ebf;" parent="1" vertex="1">
          <mxGeometry x="472.5" y="-410" width="175" height="110" as="geometry" />
        </mxCell>
        <mxCell id="plu38aycX0s7U97oGBFF-115" value="" style="outlineConnect=0;dashed=0;verticalLabelPosition=bottom;verticalAlign=top;align=center;html=1;shape=mxgraph.aws3.ec2_compute_container;fillColor=#F58534;gradientColor=none;" parent="1" vertex="1">
          <mxGeometry x="490" y="-380" width="140" height="70" as="geometry" />
        </mxCell>
        <mxCell id="plu38aycX0s7U97oGBFF-116" value="pg" style="strokeWidth=2;html=1;shape=mxgraph.flowchart.database;whiteSpace=wrap;" parent="1" vertex="1">
          <mxGeometry x="535" y="-365" width="50" height="40" as="geometry" />
        </mxCell>
        <mxCell id="plu38aycX0s7U97oGBFF-117" value="" style="rounded=1;whiteSpace=wrap;html=1;fillColor=#dae8fc;strokeColor=#6c8ebf;" parent="1" vertex="1">
          <mxGeometry x="482.5" y="-400" width="175" height="110" as="geometry" />
        </mxCell>
        <mxCell id="plu38aycX0s7U97oGBFF-118" value="" style="outlineConnect=0;dashed=0;verticalLabelPosition=bottom;verticalAlign=top;align=center;html=1;shape=mxgraph.aws3.ec2_compute_container;fillColor=#F58534;gradientColor=none;" parent="1" vertex="1">
          <mxGeometry x="500" y="-370" width="140" height="70" as="geometry" />
        </mxCell>
        <mxCell id="plu38aycX0s7U97oGBFF-119" value="pg" style="strokeWidth=2;html=1;shape=mxgraph.flowchart.database;whiteSpace=wrap;" parent="1" vertex="1">
          <mxGeometry x="545" y="-355" width="50" height="40" as="geometry" />
        </mxCell>
        <mxCell id="plu38aycX0s7U97oGBFF-121" style="edgeStyle=orthogonalEdgeStyle;rounded=0;orthogonalLoop=1;jettySize=auto;html=1;entryX=0.005;entryY=0.63;entryDx=0;entryDy=0;entryPerimeter=0;" parent="1" source="plu38aycX0s7U97oGBFF-122" target="plu38aycX0s7U97oGBFF-113" edge="1">
          <mxGeometry relative="1" as="geometry" />
        </mxCell>
        <mxCell id="plu38aycX0s7U97oGBFF-122" value="" style="rounded=1;whiteSpace=wrap;html=1;fillColor=#dae8fc;strokeColor=#6c8ebf;" parent="1" vertex="1">
          <mxGeometry x="492.5" y="-390" width="175" height="110" as="geometry" />
        </mxCell>
        <mxCell id="plu38aycX0s7U97oGBFF-123" value="" style="outlineConnect=0;dashed=0;verticalLabelPosition=bottom;verticalAlign=top;align=center;html=1;shape=mxgraph.aws3.ec2_compute_container;fillColor=#F58534;gradientColor=none;" parent="1" vertex="1">
          <mxGeometry x="510" y="-360" width="140" height="70" as="geometry" />
        </mxCell>
        <mxCell id="plu38aycX0s7U97oGBFF-124" value="sonar" style="strokeWidth=2;html=1;shape=mxgraph.flowchart.database;whiteSpace=wrap;" parent="1" vertex="1">
          <mxGeometry x="555" y="-345" width="50" height="40" as="geometry" />
        </mxCell>
        <mxCell id="plu38aycX0s7U97oGBFF-125" value="" style="shape=curlyBracket;whiteSpace=wrap;html=1;rounded=1;rotation=90;" parent="1" vertex="1">
          <mxGeometry x="537.5" y="-532" width="20" height="180" as="geometry" />
        </mxCell>
        <mxCell id="plu38aycX0s7U97oGBFF-126" style="edgeStyle=orthogonalEdgeStyle;rounded=0;orthogonalLoop=1;jettySize=auto;html=1;entryX=0.5;entryY=0.497;entryDx=0;entryDy=0;entryPerimeter=0;" parent="1" source="plu38aycX0s7U97oGBFF-127" target="plu38aycX0s7U97oGBFF-125" edge="1">
          <mxGeometry relative="1" as="geometry" />
        </mxCell>
        <mxCell id="plu38aycX0s7U97oGBFF-127" value="" style="html=1;dashed=0;whitespace=wrap;fillColor=#2875E2;strokeColor=#ffffff;points=[[0.005,0.63,0],[0.1,0.2,0],[0.9,0.2,0],[0.5,0,0],[0.995,0.63,0],[0.72,0.99,0],[0.5,1,0],[0.28,0.99,0]];shape=mxgraph.kubernetes.icon;prIcon=svc" parent="1" vertex="1">
          <mxGeometry x="492.5" y="-590" width="110" height="80" as="geometry" />
        </mxCell>
        <mxCell id="plu38aycX0s7U97oGBFF-131" value="" style="shape=curlyBracket;whiteSpace=wrap;html=1;rounded=1;" parent="1" vertex="1">
          <mxGeometry x="422.5" y="-435" width="20" height="165" as="geometry" />
        </mxCell>
        <mxCell id="plu38aycX0s7U97oGBFF-132" value="ReplicaSet = 3" style="text;html=1;align=center;verticalAlign=middle;resizable=0;points=[];autosize=1;strokeColor=none;" parent="1" vertex="1">
          <mxGeometry x="337.5" y="-360" width="90" height="20" as="geometry" />
        </mxCell>
        <mxCell id="plu38aycX0s7U97oGBFF-133" value="Pvc2" style="text;html=1;align=center;verticalAlign=middle;resizable=0;points=[];autosize=1;strokeColor=none;" parent="1" vertex="1">
          <mxGeometry x="590" y="-182" width="40" height="20" as="geometry" />
        </mxCell>
        <mxCell id="plu38aycX0s7U97oGBFF-134" value="pv2" style="text;html=1;align=center;verticalAlign=middle;resizable=0;points=[];autosize=1;strokeColor=none;" parent="1" vertex="1">
          <mxGeometry x="597.5" y="-60" width="30" height="20" as="geometry" />
        </mxCell>
        <mxCell id="plu38aycX0s7U97oGBFF-135" value="pvc" style="text;html=1;align=center;verticalAlign=middle;resizable=0;points=[];autosize=1;strokeColor=none;" parent="1" vertex="1">
          <mxGeometry x="927.5" y="-210" width="30" height="20" as="geometry" />
        </mxCell>
        <mxCell id="plu38aycX0s7U97oGBFF-136" value="pv" style="text;html=1;align=center;verticalAlign=middle;resizable=0;points=[];autosize=1;strokeColor=none;" parent="1" vertex="1">
          <mxGeometry x="937.5" y="-70" width="30" height="20" as="geometry" />
        </mxCell>
        <mxCell id="plu38aycX0s7U97oGBFF-137" value="NodePort" style="text;html=1;align=center;verticalAlign=middle;resizable=0;points=[];autosize=1;strokeColor=none;" parent="1" vertex="1">
          <mxGeometry x="562.5" y="-518" width="70" height="20" as="geometry" />
        </mxCell>
        <mxCell id="plu38aycX0s7U97oGBFF-138" value="ClusterIP" style="text;html=1;align=center;verticalAlign=middle;resizable=0;points=[];autosize=1;strokeColor=none;" parent="1" vertex="1">
          <mxGeometry x="1017.5" y="-510" width="60" height="20" as="geometry" />
        </mxCell>
        <mxCell id="plu38aycX0s7U97oGBFF-139" value="" style="html=1;dashed=0;whitespace=wrap;fillColor=#2875E2;strokeColor=#ffffff;points=[[0.005,0.63,0],[0.1,0.2,0],[0.9,0.2,0],[0.5,0,0],[0.995,0.63,0],[0.72,0.99,0],[0.5,1,0],[0.28,0.99,0]];shape=mxgraph.kubernetes.icon;prIcon=c_m" parent="1" vertex="1">
          <mxGeometry x="1092.5" y="-230" width="60" height="68" as="geometry" />
        </mxCell>
        <mxCell id="plu38aycX0s7U97oGBFF-141" value="&lt;b&gt;&lt;font style=&quot;font-size: 14px&quot;&gt;SONARQUBE&lt;/font&gt;&lt;/b&gt;" style="rounded=1;whiteSpace=wrap;html=1;fillColor=#d5e8d4;strokeColor=#82b366;" parent="1" vertex="1">
          <mxGeometry x="685" y="-650" width="120" height="60" as="geometry" />
        </mxCell>
        <mxCell id="plu38aycX0s7U97oGBFF-143" value="" style="shape=image;verticalLabelPosition=bottom;labelBackgroundColor=#ffffff;verticalAlign=top;aspect=fixed;imageAspect=0;image=data:image/jpeg,/9j/4AAQSkZJRgABAQAAAQABAAD/4gKgSUNDX1BST0ZJTEUAAQEAAAKQbGNtcwQwAABtbnRyUkdCIFhZWiAH4wALAA0ADwAZABlhY3NwQVBQTAAAAAAAAAAAAAAAAAAAAAAAAAAAAAAAAAAA9tYAAQAAAADTLWxjbXMAAAAAAAAAAAAAAAAAAAAAAAAAAAAAAAAAAAAAAAAAAAAAAAAAAAAAAAAAAAAAAAtkZXNjAAABCAAAADhjcHJ0AAABQAAAAE53dHB0AAABkAAAABRjaGFkAAABpAAAACxyWFlaAAAB0AAAABRiWFlaAAAB5AAAABRnWFlaAAAB+AAAABRyVFJDAAACDAAAACBnVFJDAAACLAAAACBiVFJDAAACTAAAACBjaHJtAAACbAAAACRtbHVjAAAAAAAAAAEAAAAMZW5VUwAAABwAAAAcAHMAUgBHAEIAIABiAHUAaQBsAHQALQBpAG4AAG1sdWMAAAAAAAAAAQAAAAxlblVTAAAAMgAAABwATgBvACAAYwBvAHAAeQByAGkAZwBoAHQALAAgAHUAcwBlACAAZgByAGUAZQBsAHkAAAAAWFlaIAAAAAAAAPbWAAEAAAAA0y1zZjMyAAAAAAABDEoAAAXj///zKgAAB5sAAP2H///7ov///aMAAAPYAADAlFhZWiAAAAAAAABvlAAAOO4AAAOQWFlaIAAAAAAAACSdAAAPgwAAtr5YWVogAAAAAAAAYqUAALeQAAAY3nBhcmEAAAAAAAMAAAACZmYAAPKnAAANWQAAE9AAAApbcGFyYQAAAAAAAwAAAAJmZgAA8qcAAA1ZAAAT0AAACltwYXJhAAAAAAADAAAAAmZmAADypwAADVkAABPQAAAKW2Nocm0AAAAAAAMAAAAAo9cAAFR7AABMzQAAmZoAACZmAAAPXP/bAEMABQMEBAQDBQQEBAUFBQYHDAgHBwcHDwsLCQwRDxISEQ8RERMWHBcTFBoVEREYIRgaHR0fHx8TFyIkIh4kHB4fHv/bAEMBBQUFBwYHDggIDh4UERQeHh4eHh4eHh4eHh4eHh4eHh4eHh4eHh4eHh4eHh4eHh4eHh4eHh4eHh4eHh4eHh4eHv/CABEIAW4BbgMBIgACEQEDEQH/xAAcAAEAAgMBAQEAAAAAAAAAAAAABgcDBQgEAgH/xAAaAQEAAgMBAAAAAAAAAAAAAAAAAwQBAgUG/9oADAMBAAIQAxAAAAG5QAAAAAAAAAAGnpqzrfrTbmtkGQAAAAAAAAAAAAAAAAAAAKSrva6r1Faw7u5i6d48oc+QAAAAAAAAAAAAAAgabWePz9h2AAAY8nnOV/w9dU/erOUuqeTL6Bx5gAAD8gu+J2gM+A0yAAAAAAABzTpJ3BPUVpzeXKlgUd7xHFmAAfnzrM45pxbnTerrZequbejuRLmHKlAAYstIza4IGekr7jpmhr540wc6QAAAAAAACIc+9Y0J1ooSOzDeM/5kvPgTynRU5DpcWxDow6MeXEWNQyfXyw30urNBt0PKeT5Bz9+kUFm3Llg9FbfUeiriZTYs2ZHlrIa5AAAAAAAAa7YmOZNT0Jz36SALehlsWHatZDeu75klN72x1PaD/U2R5rzS263xz1Furtfb15eW5WPTj8O/0CXA2uX50X5d556cKe4AAAAAAAADU+vne1p59SejgSqQXHzJNTujjShjIAAADxe0UjXnWNcdeKlc+L568XQss5Z6K4E28FCQAAAAAAAACCwi8VrSjt9abIKm4AAAAAAAEEhN4rWlHb602QVNwAAAAAAAAAAAAAAAAAAAAAAAAAAAAKS03mjvpK9tWvRt5ceVB5xW8WYCij0MHVebBn8vY1NHXZzT14pWijpaStFBbdrUdePBmVFbtC7PHv61lXWi6HHnLADRb2Nb4p62ee8vfg6sQWdcCcNMvHhoK1pu5JT1kdSO6RwZwAAOcI7Io76qrP7y5xn3KltCt/PGI8wUd2DqrPgz+StaTmnpbmnsxLbqS4LGsiZ3Hl9O/wDH7K2yhb6oW9pCJVFZV2ouhx5ayAjUljUmOcx6ur9XPSyvt1jpayg3Klz6c7cKyK3sitm6R5uyAABzhHZFHfVVR+yY/H7+AHVWfBn8la0nNPS3NPZiG06cerb1oueWxmTeZsqFvqhbekIlUVlXai6HHlrICNSWNSY5zHq6uXFd1XVNtEZLevx93bUtTbUWRW9kF0jzdkAADnCOyKO+qqz+8qNvLhzflcWRW8W1LD0tbqrPgz+StaTmnpbmnsxL8oOw7Gt3KuceW0ULmlfZQt9ULd0hEqiv33YernLrkS9ROXejqu20jUljUG3OY9XV6E38fl3lbPP1nTNLhzL01zLZ11FkVvZHRjukebsgAAc4R249Z6CDXXlAZ9yZFb2RF4887LQd2G2s+LL5yxpOaeoau6kVXrQdDSr1oDX3jAZ9xZVC31XmVIrQdmKr1oCr+nKztXm7+yNSXVUJOY1oPQwTOXaXdeenDTLmXpqqr0dR2R6JPe1nQ4cwAAAAAAAAAAAAAAAAAAAAAAAAAAAABHawsa3io7PLi6ni9tLcAAAAAAAfB9qk1NzS8VHTjVORV3AAAAAAAAA/KRu/FNrymncE9JX3988z+qtt1OrSx+FPkEeQAAABCtsSqkI9qe5CN1f09XQmDYecnCruAAAAAAAAAIttjU0bkx+krjZT41u404uGd8xufv1i5l3tPe/VI/UebsUPpd8dCwqkvm5pJ4wdDQ9djx5q37+E2t42Byj0Hwp5WOdIAAAAAAAABh5ttClu1CMvVik3QGkkPmrFa1n0t+SY5PdGw7oaVGnGntax9mwz6nplMWYatSW1dqOsW2MnPk8HvOfJz7EOkuc/Q18O31C5r1VnrOzPLWQjyAAAAAAABz1E9/qPUVvPdn7YnLkDlygAD4OaNR+/nrau36a5P6t48v2OVKAAr2wm+OT/AMvCmPR15B0RzV0rypQ50gAAAAAAAGqze9nAYyAAA8/o+TlBkx+uqOqeWuq+RL9DkTAAAPD7hqtqMAyAAAAAAAAAAAAABzdH7aqX01aQdI1PbHHlCjIAAAAAAAAAAAAAAAAAAABgr6yG+MOY0yAAAAAAAAAB/8QALBAAAQMDAwMCBwEBAQAAAAAABQMEBgABAhAWNSAwQBMUERIVITM2UGBwNP/aAAgBAQABBQL/AAhZ8mOZbmK+4EP0yLL+XOnd1SNQV3dIj/LLreuUoQt6BT+Vnf5cL/e9W+107/Nh5xuRpD3I2TsXWVuy4+6Grf7N+yTkzFrkFkiT914Z74/Wqjp9Vhklngqn13+9lsPTVpLD1Fbfa3WpninhIj6j3Kgnx+seHNm3ol9IkZu0W6ssrY2UJD06OelctQDFPIwmompbrlpm7pXSFtvXMeHK2HvhesOJ+7aaPyrBlTyX05PlV6UUUVv0Y5Xxu2Mk29M5c4xpgfGu+iXk/Zs9Ykw9kL8SWi/YvdBTzNi/JHGDJMnIn7zujTD9hQmSM3lZZWxxMPMn5DSKC/fvfFftUnrUqwWHO+pmEJuqbxBxlSURY2q0XFWq8XE0pEh16Xh+dO46Vb1nhlhlqiXfJsNBbFYg7HtEmLTxpPiPyG6pJqKqC4ourTAUwZW7Dtm1d4k4njenjRwzV1FsFiLoQObjW3jFHyI9oVILkXWgQI6JXGDGg9PuO2yDtI5GlWurdZVutHjCZNDxXKybdA2SVJvNI1HruKwxxwx78jj2Dm2eOWGVM3CrRwGIpEmfiSYcSJVtInW0ydBIvki68KRgcSNbTJ1tInQIKWGPf+MHDZRuW3EYqJFSD0npL3rpiy3EYrcRikb3ujRZXNEZuIxW4jFbiMVuIxW4jFRIq/fEtJSXIsyu4jFR0ySdGek8sq2EWkRj4gDKJNLpdLotkCUnfKuYgUfPnvYkvO1BOZ0n/G6N/wAFHuF6YHzGk25yol+w9Mn4GkVM0VI4ewIY6v3iDFsbLLk16gPI9iS87UE5nSf8bo3/AAUe4XSMhhzwTtsNW2w9DxDBgtpNucqJfsPTJ+B0xvfHKNSCznQqRbjm5Yi4JONIDyPYkvO1HyOIx7vBCt4IVIjiZRro3/BR7hdIuWHtBG4BFbgEU1cIukNJtzlRL9h6ZPwPQJlGaDMg8cPnOsB5HsSXnetv+Cj3C9MQ/XtJtzlRL9h6ZPwOmSeeOGtrXvdTDJNSoDyPYkvO9bf8FHuF0bjnzhP6OUr6OUqMIqIA9JtzlRL9h6ZPwOgNg3IRUwMcDHFJ4ZKZxsBiysa5ioDyPYkvO1BOZ0n/ABujf8FHuF0hfA9M25yol+w9Mn4HSH/rz1qg8QKgHbR5HgiQ3CjXMVAeR7El52oJzOk/43Rv+Cj3C6A5EmOH7wRreCNBDyZN3pNucpPPNPP3ryvevK968oVe+QypPwOkQ/Xug1zFQHkexJedqCczpP8AjdG/4KPcL0wPmNJtznSI4mpPwOkQ/Xug1zFQHkewUjCrx/s9ao+AzGPdJEMyKNtnrVs9ak8flToghd0x2etWz1q2etWz1q2etUfA5i3uh2PKEn+z1q2etWz1q2etWz1qZpeg0oq1u8H7PWrZ61Bmd2A3ofRVVw92etUeBZi3P/GDq75sy3YTrdpOm8teWWaOEXTfwMr2xxKytTBzuwnW7SdRkgSJeNLAvtFNApVwMXFkWxFHvOXCLZGQnlSGoAUoTdt0k0EfFzxxzwkoLNjno1cLNVg8oRWrDLHPDtl5CzZUTIuiK2gZhkSesWqLJt48oN4sk+gcTesMh8tRypmQZO+ty5btsX8qYo0TOkH3ThllhnGDtn1vGkRTEYzUzzUU0esHbPpbkyDekpOWwq0uIVeXP6UlJXKlzJResr3yvq1bLulU4rlgO0wyyTzjZXEmz8RXPFJM0/zIv9IsP9+TVTwVTJxRurT8U/Y37TNk6eZDYlembRu0SqVj/Yk9BD5Qe+RUwWS8OcvfSZaJJ5qqgR2I1hq8CDHdOYfhS0WKYUoFK4UskoipTZuq5WRjJZSm0PzpnHRbasMccMdTg/EkwWTzRV0gr31Wvhy1e653SJhfaYdg0t65agy3oFuxKwvvML/a9RVe7c54cjSySNt0VXCscj2DO/Yzv8Mcr/G9Wv8AC+F/mw7Eij+D27lBZsqASyWNeG9YM3lNWjZrj2XH4NW3/n7Lpq3dYsh7Nnfzr2+NlMfkUpPH51LW+Fv5UjQ9uaqOoe4Nfy54xvfSBsb2/mLJ4LJbSZ+4RTwRS/wf/8QAIxEAAQMEAgMBAQEAAAAAAAAAAQACEQMQEjEgMCFAUUETIv/aAAgBAwEBPwHrLgPXcZKpnx6GQ50+JMIGeo7TH/nKnwcYRMqnrqqD9sx3hGp8RcTwDiEKn1AynGSgJQEdbhBsAShT+rALELAI00WkXa2Otzos1n3ocz5Zjp6y0FYDqLAVgPfJMpmk7Sk2qFSVJTNJ+kCZuUHkIGbOdCaTPE7THABOcIsFU2mRPlf5tU0m7udWDoRqfLM3xO+AVTdoKGlU0m7udWLY82LYCZvidqnpO1YKptMMFZhAyqmkF/RNdKOrDSDQFUTN8SwpggJ2lgbPaSsCsCmCAniQsCsCmAhFYFDVniU1pn3y4BZjqzCDgetwlEQmvhAzyJhOfNmtjrPhOdKiwqFf0CzC/oEahUoAmzHT466h/LNbARYCjTKxNoJQYUKYs9sGwMjqO0xn6eVPgRKLYVPXo0/WcIKYPHrEA9n/xAAvEQABAwIDBgUFAQEBAAAAAAABAAIDBBEFEjETICEwMjMQFCJScUBBQlFhFSOR/9oACAECAQE/AeXDSSTC7UQWmx+mpmbOMBYky0mb9/QeWly57cN0aoLFfx3WRvkNmhSRujNnDlUzs0TSq2jzDOzcDSdFGbtBWKH1AblPAZn5QoomxNytWJuvLblYbPb/AJnwrKUtl9A1UOGE8ZCmUkLPsrDxfSxP1apcM+8ZT4nsNnBUkGxj/qlkEbC4qR5e4uPKBINwqOczM4+EtQyIeoqTFD+ATq2Z33XmZfcU2tmb+SjxRw6woaqObpKdG1/UnODRcqrqtsbDTl0lMZ3fxNaGCwVXX5fTHqi4uNzvA24hUuIfjJ/6uBCraTZHM3TlxVkkbcrU+vmcLHlR1ssbcoKfXSvGV318MERjHpCr2hstmqlaHStBRp4vaEdVhsTHtOYLy8XtC8vF7Qq9obNYLD2tdLZwU8EYjcQ0eMQu8KeijkbYCxUkbo3ZXeFLSOnP8VVTxxwGw3YO234VbTSyS3aFTUkzJQSEUdVhfQVX59n6NVep/qe5xPq1WG95VHad8eMPcb8+FRTtmbYqLDnl/r0TWhgsFW9g7sHbb8K6uijqsL6CnOa3VbeP9qbjI75WG95VHad8eMPcb8+ENU17yw6hHgoqoSyFrfsq3sHdg7bfhYj3lR99qKOqwvoKr43SR2avJT+1PY6M2csN7ykbnYWr/Kd7lU0hgtcqHuN+fCY2lcR+1LWSSMylYX1lVvYO7FWQiMAlVsjZJbtVM8MlDivPQe5HVUFRHE0h5XnoPcvPQe5VsjZJbtVDK2OS7l56D3Lz0HuWIVEcoGQqMgPBK89B+1M7NISPCgmZE8lxVVVxPiLQfr4aV8wu1f58yItwPJbQTOF7KSjkjbmdy6ed0LrhRStlbmaqqibNxHAqWF8Rs4bzI3SGzQqWgEfqfqnvDG3Kqqkzu/nLYwvdlCpqcQNsi4A2Kc1rxYqTDY3dPBOwyQaL/Pn/AEm4ZKdVHhjB1G6ZG2MWaFLURxdRWqrqTZ+tunLw2Cw2hRNgquo2slxoFDiEsfA8UzEona8E2pido5A30T5mM6in4jE3TipcRkfwbwRJPEqhqNqyx1Cc0PFipo9k8t5UGVsQ+FW1uf0M03WDK0BYo31NO5FK6J2Zqp6lkw4LEwNoOVnda190aoaLFT07tyNESTr9BSSbSIFYjJnlsPt9MyZ8fSeZ/8QARxAAAgEBAwMPCAkDBAMAAAAAAQIDBAAQERIhQRMgIjAxNEBRUnJzkrHB0SMyM0JhcYKRFCRQYoGho7LhU5PwBWBjcEODov/aAAgBAQAGPwL/AGI1RJnwzKvKNtV1VMnH0eQMnxstRHm0MvJP2YlKDsYVz84/4LnpSdjMubnD/D9mVMvKkOHuuppeTIMfd9lk8QtibsbK3GOH/Ro4DNIvnbLACwjmBpnPKOx+e1SD7p1kY+6NqMcQNS45J2PzsKaSAwu3mbLEHglZlf1WuWCpJkpvzSyyRsGRhiCNO0vGfVOFyoPWOG0l3YKqjEk6LNT0pKU2njf+LqPJ3dWXt4JqwGxnXH8RmvFHUN9Xc7En1D4a/FiAPbbZ1tOP/YLVDQOrxs+UCvtuptVdERXyiWOAzZ7YxyK4+6cdoNFTP5BDsyPXPheJSNjCuV+O4OCNkDGWLZp7eMaz6LKfLQjN95b8KioUNyBnaxFHS/FIe4Wz1bIOKPY2xkkZz94463FSQfZbydZLhxMcrtthV06SDjTYmwAn1J+TJm1n0eI+XmHVXWBnGEs2zb2cQ4Lq8S/V5jiPuniviqV9U7IcY02BMmqOwxVE3bFUf6PFyU3fntoEMxMf9N862Ec/1eX7x2J/GxZjgAMSbS1LbhOxHEui/VZF+rxZ2+8eLgz00y4qw+VjTzDmtoYa/GOlcLyn2I/O3l6uNOauVbylRUMfZgLeZKfjt6OQfHbYS1CfEPC3kK0H2OmFsfo+qjjjOP8ANsl1KsNBGskotVyonXJ2Xq+69aeAc5tCjjslNCMFX8zx8Hb6ecnD0ZHnY+zWCOJGdzuBRjYPXSaivIXO1vq9OoblnO3z2nJqYEkHtFi9BLk/8cm587alUwtG3t06wQQYY7pJ0C2owjEnz30seDtUTnNoGljxWM0x5q6FF+X6KDS50+62TTx4HS5847aYqiJZEOg2M9FlTQ6V9ZfG9ZoXKOucEWwbBKhBs17xwZ5pmyUQYk2Mr5oxmjTiF61dcuEW6kfK9/ssFUBVG4BwBqmiUJPulND/AM2KuCrDMQbkngbJdDmsJ0zNuOvJPBUip3hSBc5ymOLH5W9JTdY+FvSU3WPhbVv9QMUgXzUXOCfbwPV6fJjqNOO41vSU3WPhb0lN1j4WEokpzGc0i5Zzj5f9M1EENVkojYAZC+Ft+fpr4WaGqqNUQRFsMkDPiL4pKWXU2aTAnAHRbfn6a+Ft+fpr4WQndIF1TNE2S6Rkqbb8/TXwtvz9NfC2/P018Lb8/TXwtvz9NfCzxVVRqiCIthkgZ8ReYaaoyI8gHDJBtvz9NfC0EE9TlxtjiMheI66onhbJkVcxtvz9NfC2S2EdQvnJx+0a5pp3CIu6TYmjfUIRuDJBJ99pY6qfVFWPEDJA07TV8+5+hPaL4Om7jfHzRdWdC3ZrpOgPaL26NbqX4v2nXVXN77lkiYq6nEEWEFRglSPk/u1hnqHyVHzNsX2ES+ZHxXT9F3jaavn3P0J7RfB03cb4+aLqzoW7L0nqIMuQk58si29T/cbxtvU/3G8bGalhyHK5OOWTmvbo1upfi/addVc3vvDKSCNwiy0lawWfcV+X/NxlnbmqN1rarMc3qoNxb5+i7xtNXz7mqHjMgKFcAfdbecnWtvOTrWjiSBo8l8rEm+Pmi6s6Fuy9IaipCSBjmwPHbfq9U+Ft+r1TZZ4Hy423De3RrdS/F+066q5vfrWiq0aZ1Hk24/YbGeofKY/Iayfou8bTV8/aI+aLqzoW7NdTfF+43t0a3UvxftOuqub33o7KQr51PHrMBnNmjdSrKcCDoun6LvG01fP2iPmi6s6Fuy/VIKWWRONVtvGfq23jP1bU8UyFHGVip5xvbo1upfi/addVc3vvp4ahcRs8DpU5RtqcoxQ+ZINxrgiKWZjgANNhU1QD1OgaE/m1Z079t0/Rd42mr59z9Ae0XwdN3G+Pmi6s6Fuy+PnN265ujW6l+L9p11Vze++m+L9xs0FQgdGsscKNPHIcI2A/I21WTCSpIztyfYLqzp37bp+i7xtNXz7n6A9ovg6buN8fNF1Z0Ldl60rUzuQScQ1t5Sde28pOvY0607RkJlYk3t0a3B42KsNINt9z/wBw233P/cNt9z/3DalZiSTCuJPuuqub3303xfuOtrOnftun6LvG01fPufoT2i+Dpu43x80XVnQt2a6ToD2i9ujXXUnQJ2XVXN776b4v3HW1nTv23T9F3jaZqkVarqhxwybb+TqWaoaoWTFCuAXDivjhWUR5L5WJGNt+p1Lb9TqWVeIYXTU4bJMiFcbb9TqW36nUtv1OpbfqdS2/U6lmqGqFkxjycAuGkXmpWpWMZIGBW2/U6lt+p1Lb9TqW36nUtv1OpaGAnK1NAuPuF0tMHyC4wxtv1OpbfqdS0VIzhymOfD2462aoFYg1SQthkcZtv1OpaSVqhZMpMnALh/0yZ6FY3KZ3Vhjm9lvR03VPjb0dN1T42XV4YWjx2WSCD22WeBw6NuHgJZjgBpsUoEiaNfXcHZW9HTdU+NvR03VPjZpqhIUgGYZKnFj8+DGspl8gx2Sj1D4X5UeyjPnxncNtVp35yndXbzNPIqINJsYIMY6b8399+TnWFfSP3WWGJQqKMABwYo6hlOYg2NRTAtTH/wCP4vE1PI0bjSLCKvAhf+p6p8LBkYMp3CNsKRH6RNyVOYe821Sokx5KjcW9adXVNLE8Vlp4FyUX8+EGkgyXqHGfHOEGt+rTlV0qc6n8LBa2AxnlJnHyt9XqY3PFjn+Wvyp544x95sLYUyvUN1VsVeXU4j6keYa0OjFWGcEWFLVECpAzHl/zwfEYGd80Y77NJIxZmOJJ03qaiFkDDEHRrfJVkyjiysRbZSRyc5PC2eCmP4Hxtmp6b5HxtmMKc1PG2zrZfhOT2WxYkn26wRU8TSOdAtNJNJlVORiiLuA994dGKspxBGi2yzTx5pB38FaRzgqjEmz1DZl3EXiF65Q8jFs37hYpIiup3QwxsXopNQbkNnX+LHV6dsnlrnXa8mmgeT3DNYPXzYf8cfjbU6aFY19lzMo8lNs07xelQm4MzjjFlljOKuMQeCJRodlNnbmi9Y41LOxwAFlh/wDIc8h4zrCZKVVblJsTbGmrGHsdcbbARS81/G2ehl/AY2McsbRuN1WGBuEMCF5DuAWzwpFz3HdbGprFHsjXH87Y6jqzccpx/LcsFRQoG4ANY0BzPuxniNmikXJdTgQb3onOyi2Sc3/O3gk3FHgg/wA994rapfLsNip9QeO01UvHIcPddSy8Ugx920mrpl+sKM68seNsDdT8UhyD+PBKoON2QsPcc9hFDG0jnQostVWYPUequhP52kniFiTpuxGiwPGNpNTSYJUaRof+bGKeNo3Ggi1IqDclDfgM/BB9Jp0kI3Cd22TTwJEPujapOadZHzRtWTUQpKPvCxNNTpGTukbvD8LMh9U4XKg3WOFsPsuqTDMXyh+Oe6lTQHyj+Gf7Mjr0G5sJO66Svcbuwj7/ALMaKRQyMMCDbL1eXUsfM/myxRqFRRgAP9if/8QALBABAAEBBQYHAQEBAQAAAAAAAREAITFBUWEQMHGhsfAgQIGRwdHx4VBgcP/aAAgBAQABPyH/AISee4DatxXHiwDL9VeTrQ2jef5l4Hg9TpzOy8D4ep0/zDT8nuyDlsSbg92Q8v8AL1zGkokqy7EgGEtK0UHz6cCGdbYuZauieWy+HqFISRkbtyIS96XgKhedLcqBLYVesish3ympOTytzK4h8oTaJxsps5bGK2wx1TTT2oSiFpBuAIONJehX6OxrzCfVoABcbhPxFoBnRYfYruLlo99gdsyeUZ5eUe7ln6g6PrtxEeF/8v7n40hVioKkBfK360met6RvPNdkZ6C/qGpWu9BHLcYxyK5+HeG17XM3CVhzX08olq3dWw6hzDwKs8Um/AfS722y4bi8ou9a5S9o96mxngEPUt51r3RVz8IcquVDUXO0J7SqPzquRaPKotk1/vc+9DJJtu/qJL8R9bj1y8DzeTMH0dXyqWARBdi/I/m2ZmOONz2qNPNsoSRcjjT8tYto1v8AtFKrKyu8fBXZYekU0yeyLQ0+1H0lhcFLw2ZsC5tQ5Skl2B83Tj5ayhNqsE1KmlYkcQeItYKg0rtL3pRw6S3VFCnEQOjR1vEukXcE6kZbiFDCtYdQF6US2H+L9Kb3/ISeCZaOFpGMuFkbbTA2pxCqOmbXHGWvl3K/MH6/TwOoWJQ+lAS1bYpxbjnQKHYHMbnLd18cG8qXNXyT6L3vPGmmC0LOBufTwRVYS8GdQq8JOwaeXsMCw+AFWGe4/QG0XdWx+wY9Kg/Ui2cV+Lt7g1gbtTJoqKLb36nPagi5a0r3vEfg6eWPrOKp4Jsiz7nHaItfix15OrqBcYBAHkLtIVZ9HVSHRgIRy2LVnF8OlROne7fpy8qzYpAtTFw2nr14ib3MJBZp5Nwc9jsnrGOu28es7vv+sMP/ABlVFusgjWmrpKoENWFhq7cdwshJxGtXS1dJ05SX02WXBcGENa1dLV0tXS1dLV0nqAmDGbDV2o9LFc8StXSXemzkw2BmeK1BVGMMmdDDJ0aVngr/APB08Rv3nsX1cwZxkSG3hSe7kiYGAbnvdDcXyu9Zb0DPjmPEuV9GyWrh4RpIjuGrq07NpTLkYuQYtTeVWTZqc3d/d7obi+V3rLwwP/BuBOQ7a3ZKLCxIOLoeHHMeJcn6Nr4WlEI1j7B2Ghy6tls0bL8ZH3SmOLLoZH3vPu90Nllxii9U8q/L1+fp0vZGzYnzt71l4YFuYra/QbE3afxREpkYkww36nhxzHiXL+jw2OI+292+sFYDByDA3v3e6G471lvYH8cx4ly/o2lhhUWEYY9TwAgUYAxp8Rr+Rebv7vdDbDk1Dk1Dt71l4YCbSoTCv0tfpasMvjCSnhxzHiXL+jbeVQeoxrLC4sPh02QXuNKqT3Cbzg56vau+Z9393uhuK5Xest7A5jmPEuX9HgXvCIDg5mTV9HmKeQ8qM8Gx2L9nfM+7+73Q3FcrvWXhggsrIFrNfnPqvzn1TqtRLchHPw4uAORk9a79+a79+a79+aewyiVY7OX9G4375n3f3e6G4vtd6y8jBnx3TLs5X0bjfvmfd/AW4bbHOv2f3Rc2VF5U36bV5+MKxPmv2/3X7f7q2mY5bBGBLJiSv2/3X7f7r9v91+3+6/b/AHRy9pi8k36bWKyTW71r9v8Adft/uv2/3X7f7r9v9088lwXwE7CXQZkxbNft/uv2/wB1bYVmAy/l4S0JaTFpF9ft/ui7NsELR+P/ABm0isNOeCXbbx5Zu6RHSaGqOQ6OT5EYBpUwBVgWZQlmQlm28eAt00Ghm4eWXA7S++XLbJufaPxdaCyEyTanzv74W7UpA7d3I02hjJzkGTVrLduY8segYCRMqdb1pevJ+XbsuLJv3JWGQQc7scKHIEokTeGijZerssKs4hkuEbRo8SVoL4MWjhi9Viub5gtIDFIZmLp2+CRSSeaChMSv90c6HJ9hj71vj4JSpUI59/I28q9RSQat74X0TJQjWUwUh7XeXevIpzxWhToGLSraGX5ZakmJz08JwELk/YbKNDgz9KLyo6YMcVp3tnE0chhvInRS1qvVK+DA6Y9cirUhrllsTibvXad4i0KMatBIWZyOj5Ub77sAvakx9Ddx87UtfDkv2PKaGMcQh9KZlm20X55qcDnA5xd67uSnxbJxbim2Mvkt9fp70GynFrxb312NCc2QPwPJNszamp7yhMmmxHyljC1j2WvR2kmVfytBSGzvbBdtanEvaF/rTZyD1wjpXS2vhV73u3VeQoMPR2TfVxTFtRURn9pTYzB1hHSo5MuxfCrPp0EHgisG24Pw3UtpK/hNqy6tpmvPR8oMZnhuC3mdgKwEtLhBpffLlubSZD8Bg5BstogPxGHku5fDZWF8P5lQUBEvHY5DDNfBzjykHx1lYOtXMs5jUAGtvfv6Oe51fGkt0qXYxtCpK0zHc462ez69X7V6XqM1JAU9FlyPKSqx0FgyktpuuXwi8XHdTSL/AIvAENv+LdQ3y6FjhlVjnoFoylt8+Sq5Ip7+KvTY90APWiMXBB/lpYpPC/tsaNkPC/l/mBz4bLAm1zT22BR4bbEm1yD3/wAxYSrmSuPZdnhorBlqYP8AhP/aAAwDAQACAAMAAAAQ88888888888AL888888888888888888888iq888888888888888D0888+DR8888kU888888888qy888BKQ888DDE888888888kBwcBjBTyVeBHD888888888RIBGwBjzXACEI8888888888bgSB88888AEYB8888888888JCc88888888BW888888888888888888888888888888qoSCCxAAqWH88eFI8bg8888pkIDBCV/r9U88UBEYgD8888rLHDBCGDoVU88UBLBPD8888rtgDBCV929FMJUBLzVD8888k3HOKNMMpfMMbUMq8VI888888888888888888888888888888YyI88888884AR88888888883DjI88888qJAB8888888888BjHAXOICBACDq8888888888wBjFOMBPHQiJQ6888888888rp8888Iq888CBK88888888818888+DH88884D888888888888888DL888888888888888888888yc8888888888//EAB8RAQACAQUBAQEAAAAAAAAAAAEAETEQICEwYUFAUf/aAAgBAwEBPxDrdpg2WfmsGWU/ByVe/wC9ocmALOo0iUctihmJTUPC7BNxFbBl1fFoLy+aTLOzAOiAWTnoiolCjqS5xxphJ/VAfk8Yr8g/GZmCmICtEr2566vsVW2X8wAFG/76KVOetS2Bt9SFsAbP32nMa8o6dT2hiIJTPae0a8404Rw51wYxzAFmgn2KNu3NKAsWgdMJi0CvEADjRwa5tGdkKv6iq2zDtzbMJigLieUxaODXNogPjRAWYdubRz6YTFCsZ6wBZoqkZX+T+OZtOZilzAmHalWolDAqCeMIwUTxnjEoYlBPGeMcbgsZ4w0B0cFQYU/ezT16LFKOsTURUxOPyCLNwC2NwMQFaIR960C2I7loKckBnmH2035RGIp5ZhNMpnrtdGamM4gMRD5oYBFwGeYFTkPkGmycx1XVKNottx8JsAUxnzMnVRd7/vcAY/BcEqt+bKHZ/8QAKREBAAEBBQgCAwEAAAAAAAAAAQARITFBUdEgMGFxkaGxwRDwQIHh8f/aAAgBAgEBPxDds6QGePKOSon4wj4HfHvDMYO5/KfgViHV9uv2TUS4QX+frZtwmWPzugMyIaHaXmf987F1FiuYhHckL1/zYw8YuRDw0Pt8EBgboUrxPZ76/By0LdDPHWXOOBr/ALLtP7t8wAofCDfLrPD1J6w6yycYQDetef8AJc5kvG3dAEokqsUSxyeUpKmoeekun73Q1mXeQT/clxVc7ZZVTlZAMTLGFAK0tiN6BHuw3ceO7txYb9IdOgQW22JwNWNFqu0iqUY1R+WrWJRNozPz2dMt2CoAcIjYK5G6KWIziOgjw/PV2pQwMovAChdZCIqLjKH1Gkvohi24g4T/ADjSf5xpFwgULrI7AlG8rlDoEHAy+SG3VPMopYCFOsQBRPiobje+iUIxC+lvXZ7J4jivKGUpHwczWXGX0731ETatF1a0tyn31iNS8V8vuT6ncvHz2jz8YuMHKMSwO/KHToE7X3s9k8SglDLjL6d76gtXQ4zgepGIM3mX3J9TuXj57R5+LHZE50cIrzLTsF+fKdr72eyeJe8idx6lxl9O99QaNWp7n3JrKZ6MvuT6lEm8TqTgukDVSs7R5+GcUReYOamdMZ2fudr72bfSBg5couepQiS0BihodIqqUrCvHKfUOk+odIuepQlT9Cj6n1DpPqHSANSi5y7UE8z6x0gJrFU6/FIEJK1NeD+fYR6xErQ6xEhRNyEAK5sZUAOO7wXYmZDSVGdS3PnrLELw/vatrmJlp2H9iB6BMsC49vHdhBqsoXat7nAyWt0phqcZbiV1Pv7l7R6k4DrLwB1fUtNuw1lKAOEUCguH3CICGqNq8y/m7JStbDl/YFRltuAa/uYAuN/XWsxiuNviXEdSAKwnQTmy/iuBrSYYOr1iFSrCBsB9McnUY6uHjDdJOtgPEol+Jz4HDYCsMHApDMzU6U12ACWn2kqtUcTE+5wjF9Pe6UtVMq2bKpVHUMuPP1siKqjHaqrx/AHFqUeZBwQU/eP4xiMViq1d3//EACsQAQABAwMCBgICAwEAAAAAAAERACExEEFRYYEgMEBxofCRsVDBYNHx4f/aAAgBAQABPxD08zXarfxZ72EIkIXbCrsC3iK/sCQ3x+V3Wg2m2cQErvkR3EbTH8ZMOGd2RT7WuOppAaS9tCiPe9zBx/FuKQCR+wx/A0BKTw3RHukov69o8orPvPQmn+LI7rooJAhslYJ23qD5MWrGm3o1usNngCUkCLYCS8yDsChiziIS9h1oWYEoZE58jenswE91+C+YG+4fJdIASq2CkTdEZPCpl9g61ZCoYcKtkgGLIxswPomirNiV5N7LNEDUTT85effdIzw5ICSI+QQcgROSpOL+cof1pNdbzkA/dGHAAHAeQd9CQpKlwBTt8Sz1+7g354FFuZsrwTsuo9HPIC4WiBdhteB6LIjM7JnYXDIfFm4AQO7UcMy/gEq2vvrFj2B20bAOQrwKguBG81/140CfHYrGQliZid0xspNw1PwYdYHcWHvqfRqs4ASAMHcQ38AdEaXOD1G1dJXV0m1RsP8AABnZcwOtPIce/wDeqliMK+wT81Tlnv8AMCfDmh8odyoAIwQzgEB7RUTOsvh5VI6FC7EdmbgSt0E9KAEESRN9NqY2kLRgdN/YF/AghA0hJe9lMbJekina4IuT0xv0JDUy6AB03dTHDDtQ+3BBIhhhHdDYaaxIB52EvwPFM3IlVlXzFCLeSDgFnv0GJHE7ssF4hwLSXeIQAlV4CpzF9MkGzF3qrvqpKDbk9Y+BGyjEek3q7Y4mFdWyQn+pqHwL0Jdv1JsyeIIAqsAb0Re8AIuSxHsaQPt117SiP5pKNZn3Zb5ooRW5J/AV9tH1mj1sEBuzL5reK5R3rEF2UdvtaqJsiHHdRueAUNs2+kJJBlJJCwDrsxeGG9gbG6gZrNIRLzJ3Tf8AAWD0u1XqPYmAMGwHdBI4ZSJGJYxrI1ExfALtMAhSgO587kKiUPdTzcT2IOlRrFRrFQUYhG+2/AlZbmEJ0OzoDqFBQMwtBuVnqk8A5TJkVBe7ksC3704uEGRt3gSxgHKq+l2pZJd4k4PLzsCuKiHCWW+sX7cr2DQxDCytmd162G7NqipNC/1Xojo83Od6RLkL9QRqOdl5B3QMHIQ3GF1Mu2BJ/Y4RsijVsFI2A4vZbkymHIs+lVIXag2OVYALqgU6T+5nl2YhXbAau4gSQ9t7gM5WKCbCVGIACwBtpaPMvpcXyGflTZucLMLNL1ivGYUNxHbSG8S4eQ3RIm40diOaAXOqytzqIek6A2+JQhBgnKrtGh2aCiv75gobXS5sQgBBY9FDbqSBteFCYgyWdk0mnYCR5ocgx3lbcmF9PHpO/wDl0TOqtYxKLnd08uoRMACSNxYmL6rWINgOghcNfPmwsFolQrRWfxejUYCN+TxefPnz5aY64AJI3FiYvo4o2oURgZZd+dPIyiXsaXFLDZ28SyTzWtTARsuSkgERsD0aGGmuCDMt3kZwZIWrRq4qVDUo9gMqwBdcUnu65ec0RcWGL5ZsiVmKlzZfMKmxWK+E1PveNFff8vJd/ZcPlfXIXVQRtxqK6UMAL8G97y0ngWNThfY74491gFqYQNzLHUTLtgg89BraV8Jqfe8a2r6/lqKKfzhQszHTUgwQLZpKQQ5m9E20a+64fH9PBZG89gEyIlxHehbSITZmx8PQ2ak7TJEfY4xKsfgb1NqM/Y3W0q77AHm4NHUmmY3QmP719Z/qvpv9VPGrCi0gNX3vGtq+v5atvlzAiMoXOurJnbzmQm2gNkMbVtTtX3XD4/p4TIoiKJhKjW7BGwI8ZjKhcW6z6yO2z2x85ZVfS4Nfe8a2r6/l4/muK+64fH9PAZZGsUQst4Qep4CPiGlTgDdoPjSQlCGyInm4NAuBa/5lf8ykMidtfveNbV9fy1S4oxUYSejr99tQ/wANpOoj3pxXFfdcPj+ngMzDxg5aG2emHCNPpEVgJ+ndY6kLR/yI1GAAutY9hHJ22cmBjk+dHwaiwTgqDivhNT73jW1fX8tft+dRUabU7V91w63bc1bkqTkrajwGfl1gOlythshslX9x2SX4SBZYQLaED1g0cml5fw5PQtW/nx8Gou+nwmp97xravr+WrAlSFPCEcTrGjL5HnUswDr7VNNfdcOkqHpqcQwLllO/gWLFiER4JKqt1XejwGfn6aNqit/Qx8GtvwGp9bxrevr+XkO3FfdcPjLu3gc/P8GfMj4SoOjLQhS7GmIOt1oN0K/70KlYjqAtIE1cvSPSpAiYAn4pzUAtMBsSm8T4uXr169H3NtBuBXT302qXkuCJbyDnxcvXr0yPpD6DRBtMToPyScREkEnGvLk7BJNtaViLe3hRQzAKBOUTGnKCrqoV5Kv8AlY9tJ6Ver+jmu3pmTyweF8yyS8kxiHSaNipUc+K0JMwkOLZJEoRxyGQbI3Gt/QOxkaCJVWwBvVz6U3dGFxmVzbWadl1fvdQkIMsZQMMekYSGlzsy0K2DCNuTGE1sjlOg8nCYHeS1Rc2Dhbbi4Ejs5pzXby3QvDzFHQDKuwSu1G/cDYhbMMbg+7LEaBgeOd4w7XF1xCOR5lg/burdVX0zlvjkiFDZEqROYpWfceGzDeHU8RsQxuJhNxkd6OXIAsvJyvzlfCiGaDrYRLJ5bUvyAT2TIR1HZjNSBKbsztP8sru6vHKJm4NniD3YL17stDcvc3e1gCgt6W2jykQAjLWUbO0XbQUWWfBJJO4hNgXkh61Y24u55Uxey6hByQge8B7lTper0UtW9nI9gCyvQopgsEQeoy7QeaKvMGTiJvdFjoeEU71Y1xEuJzWzRBBF0MALozdNw9K5oky3cALLqj1UN1JmtkhZVeZ1nVrI2QWBN1c48AoiKJhKxxaQe0/wqCi7nWgwITLLfOmfabpoRJnDLFDEOsGOINlP2OVEdVz4MQMp8HKx1FAphEseyFlA4Bys02YdHEYSVSBMI0BToK3SOg22RMRPpGg8PYyp7A1KdWQ5z3GVdV1UGahML8Jc4Ui2kIPhVmmfTLhOj/qcBTwj3gc3j2QenlxT5hWXqx3EqLq0pXscg6gelC5CJu3lrvVLSUoBaAun5yQ21Ft5hYHHfsJwg1iPM8YR/DR6N8zHLjFns9i1CaEkrQB3o1ozfguDwWe05WtqKAiII5GmrjrNNy2i9jTPFZ/k8PyqfRTELfxq623i/a1Amu4KCSAkiPs6FCFOCAqJTAL2qdNMfoEz8UzFuRl7LD8q6JcQ9gflQ4ZwQ/AFjS9FHLaaxGJfcXRnIUSfIIWhP/dXkwArq2On6XFHo0VanOEw/J76AEIwASrUSne4K6mwZ4MZU8hxTzhUvK0w8yVJwqwY8e9AkY5bisHIY5OiiwGQEImzpCRBTgYHz9vSLsTCQJkObQ9xpK2Q43W2A3WxvQsABIZzOC5wsSx5IHSzJ7E0vco3KsukchE4RkoAyxJ7k+TKIRhkcrvdjvFEkreoOTkdks7U8yPpMCr3fSPnlJzIgxCdpiv/AHSRxO5fKFnUJ7z8GIEb7x8kovf0XetN11IoBKyRyLphO0x6S1W8oFZQjo180UyR/WnyXlID90Q8CDofxTSowp2bWOhM7aDCJOLZs9G3vR/FocPQbhfpKHqdEWOuNgn0kD0NH8WXuDJUQjX48uxM8vDExvN6ElQyBEAfxm1Hp//Z;" parent="1" vertex="1">
          <mxGeometry x="702.5" y="-910" width="90" height="90" as="geometry" />
        </mxCell>
        <mxCell id="plu38aycX0s7U97oGBFF-144" value="" style="shape=flexArrow;endArrow=classic;html=1;fillColor=#0000CC;" parent="1" source="plu38aycX0s7U97oGBFF-140" edge="1">
          <mxGeometry width="50" height="50" relative="1" as="geometry">
            <mxPoint x="740" y="-670" as="sourcePoint" />
            <mxPoint x="750" y="-810" as="targetPoint" />
          </mxGeometry>
        </mxCell>
        <mxCell id="plu38aycX0s7U97oGBFF-145" value="&lt;span&gt;repository:&lt;/span&gt;&lt;br&gt;&lt;span&gt;&amp;nbsp; image: sonarqube&lt;/span&gt;&lt;br&gt;&lt;span&gt;&amp;nbsp; tag: 8.8&lt;/span&gt;" style="shape=note;whiteSpace=wrap;html=1;backgroundOutline=1;darkOpacity=0.05;align=left;" parent="1" vertex="1">
          <mxGeometry x="461.25" y="-1149" width="162.5" height="210" as="geometry" />
        </mxCell>
        <mxCell id="JOZ2P4XEBkWEjdUSPyCL-4" value="" style="edgeStyle=orthogonalEdgeStyle;rounded=0;orthogonalLoop=1;jettySize=auto;html=1;" edge="1" parent="1" target="JOZ2P4XEBkWEjdUSPyCL-7">
          <mxGeometry relative="1" as="geometry">
            <mxPoint x="495" y="-290" as="sourcePoint" />
          </mxGeometry>
        </mxCell>
        <mxCell id="JOZ2P4XEBkWEjdUSPyCL-5" value="" style="html=1;dashed=0;whitespace=wrap;fillColor=#2875E2;strokeColor=#ffffff;points=[[0.005,0.63,0],[0.1,0.2,0],[0.9,0.2,0],[0.5,0,0],[0.995,0.63,0],[0.72,0.99,0],[0.5,1,0],[0.28,0.99,0]];shape=mxgraph.kubernetes.icon;prIcon=pv" vertex="1" parent="1">
          <mxGeometry x="462.5" y="-80" width="65" height="60" as="geometry" />
        </mxCell>
        <mxCell id="JOZ2P4XEBkWEjdUSPyCL-6" value="" style="edgeStyle=orthogonalEdgeStyle;rounded=0;orthogonalLoop=1;jettySize=auto;html=1;" edge="1" parent="1" source="JOZ2P4XEBkWEjdUSPyCL-7" target="JOZ2P4XEBkWEjdUSPyCL-5">
          <mxGeometry relative="1" as="geometry" />
        </mxCell>
        <mxCell id="JOZ2P4XEBkWEjdUSPyCL-7" value="" style="html=1;dashed=0;whitespace=wrap;fillColor=#2875E2;strokeColor=#ffffff;points=[[0.005,0.63,0],[0.1,0.2,0],[0.9,0.2,0],[0.5,0,0],[0.995,0.63,0],[0.72,0.99,0],[0.5,1,0],[0.28,0.99,0]];shape=mxgraph.kubernetes.icon;prIcon=pvc" vertex="1" parent="1">
          <mxGeometry x="462.5" y="-202" width="65" height="60" as="geometry" />
        </mxCell>
        <mxCell id="JOZ2P4XEBkWEjdUSPyCL-8" value="Pvc" style="text;html=1;align=center;verticalAlign=middle;resizable=0;points=[];autosize=1;strokeColor=none;" vertex="1" parent="1">
          <mxGeometry x="427.5" y="-190" width="40" height="20" as="geometry" />
        </mxCell>
        <mxCell id="JOZ2P4XEBkWEjdUSPyCL-9" value="pv" style="text;html=1;align=center;verticalAlign=middle;resizable=0;points=[];autosize=1;strokeColor=none;" vertex="1" parent="1">
          <mxGeometry x="442.5" y="-80" width="30" height="20" as="geometry" />
        </mxCell>
        <mxCell id="JOZ2P4XEBkWEjdUSPyCL-34" value="" style="whiteSpace=wrap;html=1;aspect=fixed;" vertex="1" parent="1">
          <mxGeometry x="1122.5" y="-1200" width="420" height="420" as="geometry" />
        </mxCell>
        <mxCell id="JOZ2P4XEBkWEjdUSPyCL-35" value="" style="html=1;dashed=0;whitespace=wrap;fillColor=#2875E2;strokeColor=#ffffff;points=[[0.005,0.63,0],[0.1,0.2,0],[0.9,0.2,0],[0.5,0,0],[0.995,0.63,0],[0.72,0.99,0],[0.5,1,0],[0.28,0.99,0]];shape=mxgraph.kubernetes.icon;prIcon=node" vertex="1" parent="1">
          <mxGeometry x="1170" y="-900" width="50" height="48" as="geometry" />
        </mxCell>
        <mxCell id="JOZ2P4XEBkWEjdUSPyCL-36" value="" style="html=1;dashed=0;whitespace=wrap;fillColor=#2875E2;strokeColor=#ffffff;points=[[0.005,0.63,0],[0.1,0.2,0],[0.9,0.2,0],[0.5,0,0],[0.995,0.63,0],[0.72,0.99,0],[0.5,1,0],[0.28,0.99,0]];shape=mxgraph.kubernetes.icon;prIcon=node" vertex="1" parent="1">
          <mxGeometry x="1435" y="-898" width="50" height="48" as="geometry" />
        </mxCell>
        <mxCell id="JOZ2P4XEBkWEjdUSPyCL-39" value="" style="edgeStyle=orthogonalEdgeStyle;rounded=0;orthogonalLoop=1;jettySize=auto;html=1;exitX=0.75;exitY=1;exitDx=0;exitDy=0;" edge="1" parent="1" target="JOZ2P4XEBkWEjdUSPyCL-42" source="plu38aycX0s7U97oGBFF-122">
          <mxGeometry relative="1" as="geometry">
            <mxPoint x="600" y="-260" as="sourcePoint" />
          </mxGeometry>
        </mxCell>
        <mxCell id="JOZ2P4XEBkWEjdUSPyCL-40" value="" style="html=1;dashed=0;whitespace=wrap;fillColor=#2875E2;strokeColor=#ffffff;points=[[0.005,0.63,0],[0.1,0.2,0],[0.9,0.2,0],[0.5,0,0],[0.995,0.63,0],[0.72,0.99,0],[0.5,1,0],[0.28,0.99,0]];shape=mxgraph.kubernetes.icon;prIcon=pv" vertex="1" parent="1">
          <mxGeometry x="592.5" y="-80" width="65" height="60" as="geometry" />
        </mxCell>
        <mxCell id="JOZ2P4XEBkWEjdUSPyCL-41" value="" style="edgeStyle=orthogonalEdgeStyle;rounded=0;orthogonalLoop=1;jettySize=auto;html=1;" edge="1" parent="1" source="JOZ2P4XEBkWEjdUSPyCL-42" target="JOZ2P4XEBkWEjdUSPyCL-40">
          <mxGeometry relative="1" as="geometry" />
        </mxCell>
        <mxCell id="JOZ2P4XEBkWEjdUSPyCL-42" value="" style="html=1;dashed=0;whitespace=wrap;fillColor=#2875E2;strokeColor=#ffffff;points=[[0.005,0.63,0],[0.1,0.2,0],[0.9,0.2,0],[0.5,0,0],[0.995,0.63,0],[0.72,0.99,0],[0.5,1,0],[0.28,0.99,0]];shape=mxgraph.kubernetes.icon;prIcon=pvc" vertex="1" parent="1">
          <mxGeometry x="592.5" y="-202" width="65" height="60" as="geometry" />
        </mxCell>
        <mxCell id="JOZ2P4XEBkWEjdUSPyCL-43" value="Pvc" style="text;html=1;align=center;verticalAlign=middle;resizable=0;points=[];autosize=1;strokeColor=none;" vertex="1" parent="1">
          <mxGeometry x="565" y="-162" width="40" height="20" as="geometry" />
        </mxCell>
        <mxCell id="JOZ2P4XEBkWEjdUSPyCL-44" value="pv" style="text;html=1;align=center;verticalAlign=middle;resizable=0;points=[];autosize=1;strokeColor=none;" vertex="1" parent="1">
          <mxGeometry x="562.5" y="-40" width="30" height="20" as="geometry" />
        </mxCell>
        <mxCell id="JOZ2P4XEBkWEjdUSPyCL-47" value="&lt;b&gt;Node2&lt;/b&gt;" style="text;html=1;strokeColor=none;fillColor=none;align=center;verticalAlign=middle;whiteSpace=wrap;rounded=0;" vertex="1" parent="1">
          <mxGeometry x="1175" y="-850" width="40" height="20" as="geometry" />
        </mxCell>
        <mxCell id="JOZ2P4XEBkWEjdUSPyCL-48" value="&lt;b&gt;Node3&lt;/b&gt;" style="text;html=1;strokeColor=none;fillColor=none;align=center;verticalAlign=middle;whiteSpace=wrap;rounded=0;" vertex="1" parent="1">
          <mxGeometry x="1440" y="-850" width="40" height="20" as="geometry" />
        </mxCell>
        <mxCell id="JOZ2P4XEBkWEjdUSPyCL-52" value="" style="html=1;dashed=0;whitespace=wrap;fillColor=#2875E2;strokeColor=#ffffff;points=[[0.005,0.63,0],[0.1,0.2,0],[0.9,0.2,0],[0.5,0,0],[0.995,0.63,0],[0.72,0.99,0],[0.5,1,0],[0.28,0.99,0]];shape=mxgraph.kubernetes.icon;prIcon=master" vertex="1" parent="1">
          <mxGeometry x="1262.5" y="-1108" width="107.5" height="78" as="geometry" />
        </mxCell>
        <mxCell id="JOZ2P4XEBkWEjdUSPyCL-75" value="" style="edgeStyle=orthogonalEdgeStyle;rounded=0;orthogonalLoop=1;jettySize=auto;html=1;entryX=0.36;entryY=0.073;entryDx=0;entryDy=0;entryPerimeter=0;" edge="1" parent="1" source="JOZ2P4XEBkWEjdUSPyCL-53" target="JOZ2P4XEBkWEjdUSPyCL-54">
          <mxGeometry relative="1" as="geometry">
            <mxPoint x="1316" y="-965" as="targetPoint" />
          </mxGeometry>
        </mxCell>
        <mxCell id="JOZ2P4XEBkWEjdUSPyCL-76" style="edgeStyle=orthogonalEdgeStyle;rounded=0;orthogonalLoop=1;jettySize=auto;html=1;entryX=0.5;entryY=0;entryDx=0;entryDy=0;entryPerimeter=0;" edge="1" parent="1" source="JOZ2P4XEBkWEjdUSPyCL-53" target="JOZ2P4XEBkWEjdUSPyCL-36">
          <mxGeometry relative="1" as="geometry" />
        </mxCell>
        <mxCell id="JOZ2P4XEBkWEjdUSPyCL-77" style="edgeStyle=orthogonalEdgeStyle;rounded=0;orthogonalLoop=1;jettySize=auto;html=1;entryX=0.5;entryY=0;entryDx=0;entryDy=0;entryPerimeter=0;" edge="1" parent="1" source="JOZ2P4XEBkWEjdUSPyCL-53" target="JOZ2P4XEBkWEjdUSPyCL-35">
          <mxGeometry relative="1" as="geometry" />
        </mxCell>
        <mxCell id="JOZ2P4XEBkWEjdUSPyCL-53" value="&lt;b&gt;Master&lt;/b&gt;" style="text;html=1;strokeColor=none;fillColor=none;align=center;verticalAlign=middle;whiteSpace=wrap;rounded=0;" vertex="1" parent="1">
          <mxGeometry x="1300" y="-1030" width="40" height="20" as="geometry" />
        </mxCell>
        <mxCell id="JOZ2P4XEBkWEjdUSPyCL-54" value="" style="html=1;dashed=0;whitespace=wrap;fillColor=#2875E2;strokeColor=#ffffff;points=[[0.005,0.63,0],[0.1,0.2,0],[0.9,0.2,0],[0.5,0,0],[0.995,0.63,0],[0.72,0.99,0],[0.5,1,0],[0.28,0.99,0]];shape=mxgraph.kubernetes.icon;prIcon=node" vertex="1" parent="1">
          <mxGeometry x="1301.25" y="-958" width="50" height="48" as="geometry" />
        </mxCell>
        <mxCell id="JOZ2P4XEBkWEjdUSPyCL-55" value="&lt;b&gt;Node1&lt;/b&gt;" style="text;html=1;strokeColor=none;fillColor=none;align=center;verticalAlign=middle;whiteSpace=wrap;rounded=0;" vertex="1" parent="1">
          <mxGeometry x="1306.25" y="-909" width="40" height="20" as="geometry" />
        </mxCell>
        <mxCell id="JOZ2P4XEBkWEjdUSPyCL-56" value="" style="endArrow=none;html=1;" edge="1" parent="1" target="JOZ2P4XEBkWEjdUSPyCL-34">
          <mxGeometry width="50" height="50" relative="1" as="geometry">
            <mxPoint x="1122.5" y="-1130" as="sourcePoint" />
            <mxPoint x="1332.5" y="-1130" as="targetPoint" />
          </mxGeometry>
        </mxCell>
        <mxCell id="JOZ2P4XEBkWEjdUSPyCL-57" value="" style="shape=link;html=1;entryX=1.001;entryY=0.201;entryDx=0;entryDy=0;entryPerimeter=0;" edge="1" parent="1" target="JOZ2P4XEBkWEjdUSPyCL-34">
          <mxGeometry width="100" relative="1" as="geometry">
            <mxPoint x="1122.5" y="-1120" as="sourcePoint" />
            <mxPoint x="1222.5" y="-1120" as="targetPoint" />
          </mxGeometry>
        </mxCell>
        <mxCell id="JOZ2P4XEBkWEjdUSPyCL-58" value="" style="aspect=fixed;html=1;points=[];align=center;image;fontSize=12;image=img/lib/mscae/Kubernetes.svg;" vertex="1" parent="1">
          <mxGeometry x="1170" y="-1190" width="50" height="48" as="geometry" />
        </mxCell>
        <mxCell id="JOZ2P4XEBkWEjdUSPyCL-59" value="&lt;b&gt;Kubernetes Cluster&lt;/b&gt;" style="text;html=1;strokeColor=none;fillColor=none;align=center;verticalAlign=middle;whiteSpace=wrap;rounded=0;" vertex="1" parent="1">
          <mxGeometry x="1245" y="-1176" width="200" height="20" as="geometry" />
        </mxCell>
        <mxCell id="JOZ2P4XEBkWEjdUSPyCL-60" value="" style="shape=image;html=1;verticalAlign=top;verticalLabelPosition=bottom;labelBackgroundColor=#ffffff;imageAspect=0;aspect=fixed;image=https://cdn4.iconfinder.com/data/icons/logos-brands-5/24/kubernetes-128.png" vertex="1" parent="1">
          <mxGeometry x="1475" y="-1190" width="58" height="58" as="geometry" />
        </mxCell>
        <mxCell id="JOZ2P4XEBkWEjdUSPyCL-62" value="" style="shape=image;html=1;verticalAlign=top;verticalLabelPosition=bottom;labelBackgroundColor=#ffffff;imageAspect=0;aspect=fixed;image=https://cdn0.iconfinder.com/data/icons/pinpoint-action/48/install-128.png" vertex="1" parent="1">
          <mxGeometry x="927.5" y="-1040.5" width="41" height="41" as="geometry" />
        </mxCell>
        <mxCell id="JOZ2P4XEBkWEjdUSPyCL-63" value="" style="endArrow=none;html=1;exitX=0.5;exitY=0;exitDx=0;exitDy=0;entryX=0;entryY=0.5;entryDx=0;entryDy=0;" edge="1" parent="1" source="plu38aycX0s7U97oGBFF-143" target="JOZ2P4XEBkWEjdUSPyCL-62">
          <mxGeometry width="50" height="50" relative="1" as="geometry">
            <mxPoint x="900" y="-880" as="sourcePoint" />
            <mxPoint x="950" y="-930" as="targetPoint" />
            <Array as="points">
              <mxPoint x="748" y="-1020" />
            </Array>
          </mxGeometry>
        </mxCell>
        <mxCell id="JOZ2P4XEBkWEjdUSPyCL-64" value="" style="endArrow=none;html=1;entryX=-0.001;entryY=0.43;entryDx=0;entryDy=0;entryPerimeter=0;exitX=1;exitY=0.5;exitDx=0;exitDy=0;" edge="1" parent="1" source="JOZ2P4XEBkWEjdUSPyCL-62" target="JOZ2P4XEBkWEjdUSPyCL-34">
          <mxGeometry width="50" height="50" relative="1" as="geometry">
            <mxPoint x="900" y="-880" as="sourcePoint" />
            <mxPoint x="950" y="-930" as="targetPoint" />
            <Array as="points">
              <mxPoint x="1060" y="-1020" />
            </Array>
          </mxGeometry>
        </mxCell>
        <mxCell id="JOZ2P4XEBkWEjdUSPyCL-65" value="&lt;b&gt;instal helm release&lt;/b&gt;" style="text;html=1;strokeColor=none;fillColor=none;align=center;verticalAlign=middle;whiteSpace=wrap;rounded=0;" vertex="1" parent="1">
          <mxGeometry x="822.5" y="-1070" width="145" height="20" as="geometry" />
        </mxCell>
        <mxCell id="JOZ2P4XEBkWEjdUSPyCL-66" style="edgeStyle=orthogonalEdgeStyle;rounded=0;orthogonalLoop=1;jettySize=auto;html=1;exitX=0.5;exitY=1;exitDx=0;exitDy=0;" edge="1" parent="1" source="JOZ2P4XEBkWEjdUSPyCL-65" target="JOZ2P4XEBkWEjdUSPyCL-62">
          <mxGeometry relative="1" as="geometry">
            <mxPoint x="1110" y="-999" as="targetPoint" />
          </mxGeometry>
        </mxCell>
        <mxCell id="JOZ2P4XEBkWEjdUSPyCL-67" value="&lt;b&gt;Exemple sonarqube&lt;/b&gt;" style="text;html=1;strokeColor=none;fillColor=none;align=center;verticalAlign=middle;whiteSpace=wrap;rounded=0;" vertex="1" parent="1">
          <mxGeometry x="1027.5" y="-700" width="132.5" height="20" as="geometry" />
        </mxCell>
        <mxCell id="JOZ2P4XEBkWEjdUSPyCL-68" value="" style="shape=image;html=1;verticalAlign=top;verticalLabelPosition=bottom;labelBackgroundColor=#ffffff;imageAspect=0;aspect=fixed;image=https://cdn4.iconfinder.com/data/icons/logos-brands-5/24/jenkins-128.png" vertex="1" parent="1">
          <mxGeometry x="20" y="-1230" width="128" height="128" as="geometry" />
        </mxCell>
        <mxCell id="JOZ2P4XEBkWEjdUSPyCL-70" value="" style="edgeStyle=orthogonalEdgeStyle;rounded=0;orthogonalLoop=1;jettySize=auto;html=1;entryX=0.995;entryY=0.63;entryDx=0;entryDy=0;entryPerimeter=0;" edge="1" parent="1" source="JOZ2P4XEBkWEjdUSPyCL-69" target="JOZ2P4XEBkWEjdUSPyCL-40">
          <mxGeometry relative="1" as="geometry" />
        </mxCell>
        <mxCell id="JOZ2P4XEBkWEjdUSPyCL-71" style="edgeStyle=orthogonalEdgeStyle;rounded=0;orthogonalLoop=1;jettySize=auto;html=1;entryX=0.995;entryY=0.63;entryDx=0;entryDy=0;entryPerimeter=0;" edge="1" parent="1" source="JOZ2P4XEBkWEjdUSPyCL-69" target="plu38aycX0s7U97oGBFF-109">
          <mxGeometry relative="1" as="geometry" />
        </mxCell>
        <mxCell id="JOZ2P4XEBkWEjdUSPyCL-72" style="edgeStyle=orthogonalEdgeStyle;rounded=0;orthogonalLoop=1;jettySize=auto;html=1;entryX=0.5;entryY=1;entryDx=0;entryDy=0;entryPerimeter=0;" edge="1" parent="1" source="JOZ2P4XEBkWEjdUSPyCL-69" target="JOZ2P4XEBkWEjdUSPyCL-5">
          <mxGeometry relative="1" as="geometry">
            <Array as="points">
              <mxPoint x="689" y="-16" />
              <mxPoint x="689" y="-10" />
              <mxPoint x="495" y="-10" />
            </Array>
          </mxGeometry>
        </mxCell>
        <mxCell id="JOZ2P4XEBkWEjdUSPyCL-69" value="" style="shape=image;html=1;verticalAlign=top;verticalLabelPosition=bottom;labelBackgroundColor=#ffffff;imageAspect=0;aspect=fixed;image=https://cdn2.iconfinder.com/data/icons/stilllife/48x48/filesystems/gnome-fs-nfs.png" vertex="1" parent="1">
          <mxGeometry x="850" y="-32.5" width="33" height="33" as="geometry" />
        </mxCell>
      </root>
    </mxGraphModel>
  </diagram>
</mxfile>
